<mxfile host="Electron" modified="2024-11-11T23:24:52.933Z" agent="Mozilla/5.0 (Macintosh; Intel Mac OS X 10_15_7) AppleWebKit/537.36 (KHTML, like Gecko) draw.io/23.0.2 Chrome/120.0.6099.109 Electron/28.1.0 Safari/537.36" etag="qJtM10UM2ppMW79zij7n" version="23.0.2" type="device">
  <diagram name="Page-1" id="XD1-e_rAunUQ8mGmSZGq">
    <mxGraphModel dx="954" dy="674" grid="1" gridSize="10" guides="1" tooltips="1" connect="1" arrows="1" fold="1" page="1" pageScale="1" pageWidth="3000" pageHeight="3000" math="0" shadow="0">
      <root>
        <mxCell id="0" />
        <mxCell id="1" parent="0" />
        <mxCell id="NVdRaBqU4HW8lZqmBsLU-1" value="" style="shape=curlyBracket;whiteSpace=wrap;html=1;rounded=1;labelPosition=left;verticalLabelPosition=middle;align=right;verticalAlign=middle;strokeWidth=2;" vertex="1" parent="1">
          <mxGeometry x="470" y="90" width="20" height="150" as="geometry" />
        </mxCell>
        <mxCell id="NVdRaBqU4HW8lZqmBsLU-2" value="&lt;font style=&quot;font-size: 16px;&quot;&gt;Price Trend for the Upcoming Week&lt;/font&gt;" style="text;html=1;strokeColor=none;fillColor=none;align=center;verticalAlign=middle;whiteSpace=wrap;rounded=0;fontStyle=1" vertex="1" parent="1">
          <mxGeometry x="470" y="60" width="220" height="20" as="geometry" />
        </mxCell>
        <mxCell id="NVdRaBqU4HW8lZqmBsLU-3" value="&lt;font style=&quot;font-size: 16px;&quot;&gt;Bitcoin (BTC) : Rise&lt;/font&gt;" style="text;html=1;strokeColor=none;fillColor=none;align=center;verticalAlign=middle;whiteSpace=wrap;rounded=0;" vertex="1" parent="1">
          <mxGeometry x="500" y="90" width="150" height="30" as="geometry" />
        </mxCell>
        <mxCell id="NVdRaBqU4HW8lZqmBsLU-4" value="&lt;font style=&quot;font-size: 16px;&quot;&gt;Ethereum (ETH) : Fall&lt;/font&gt;" style="text;html=1;strokeColor=none;fillColor=none;align=center;verticalAlign=middle;whiteSpace=wrap;rounded=0;" vertex="1" parent="1">
          <mxGeometry x="501" y="120" width="162" height="30" as="geometry" />
        </mxCell>
        <mxCell id="NVdRaBqU4HW8lZqmBsLU-5" value="&lt;font style=&quot;font-size: 16px;&quot;&gt;Crypto Market : Rise&lt;/font&gt;" style="text;html=1;strokeColor=none;fillColor=none;align=center;verticalAlign=middle;whiteSpace=wrap;rounded=0;" vertex="1" parent="1">
          <mxGeometry x="500" y="210" width="150" height="30" as="geometry" />
        </mxCell>
        <mxCell id="NVdRaBqU4HW8lZqmBsLU-6" value="&lt;font style=&quot;font-size: 16px;&quot;&gt;Ripple (XRP) : Rise&lt;/font&gt;" style="text;html=1;strokeColor=none;fillColor=none;align=center;verticalAlign=middle;whiteSpace=wrap;rounded=0;" vertex="1" parent="1">
          <mxGeometry x="500" y="150" width="150" height="30" as="geometry" />
        </mxCell>
        <mxCell id="NVdRaBqU4HW8lZqmBsLU-7" value="&lt;font style=&quot;font-size: 16px;&quot;&gt;...&lt;/font&gt;" style="text;html=1;strokeColor=none;fillColor=none;align=center;verticalAlign=middle;whiteSpace=wrap;rounded=0;" vertex="1" parent="1">
          <mxGeometry x="500" y="180" width="30" height="30" as="geometry" />
        </mxCell>
      </root>
    </mxGraphModel>
  </diagram>
</mxfile>
